<?xml version="1.0" encoding="UTF-8" standalone="no"?>
<!-- Created with Inkscape (http://www.inkscape.org/) -->

<svg
   version="1.1"
   id="svg1"
   width="372.36365"
   height="372.36365"
   viewBox="0 0 372.36365 372.36365"
   xmlns="http://www.w3.org/2000/svg"
   xmlns:svg="http://www.w3.org/2000/svg">
  <defs
     id="defs1" />
  <g
     id="layer2"
     style="display:inline">
    <path
       style="display:inline;fill:#f7a56a;fill-opacity:1;stroke:#f7a56a;stroke-width:0.942892;stroke-opacity:1"
       d="m 288.82039,361.24211 c -3.99216,2.55746 -11.97649,10.83885 -11.97649,10.83885 l 11.39501,0.15198 c 0,0 1.51298,-9.914 0.58148,-10.99083 z"
       id="path155" />
    <path
       style="display:inline;fill:#f7a56a;fill-opacity:1;stroke:#f7a56a;stroke-opacity:1"
       d="m 207.09216,372.76114 c 0,0 13.76829,-5.98517 16.03935,-10.10146 0,0 -0.28388,3.92238 4.11629,6.81317 0,0 5.81959,-0.99359 18.87818,-20.0137 0,0 -0.85165,15.306 -3.83241,19.304 l -4.25824,3.6005 z"
       id="path157" />
    <path
       style="display:inline;fill:#f7a56a;fill-opacity:1;stroke:#f7a56a;stroke-opacity:1"
       d="M 0,372.36365 0.47945545,240.42352 c 0.33765367,0.87023 5.28990675,5.47526 5.28990675,5.47526 0,0 10.2046428,-21.57472 14.0313848,-33.28671 0,0 8.591408,41.19139 19.957135,53.0088 0,0 -4.829971,-9.08139 31.804188,-37.08394 0,0 -9.936388,34.02461 -0.100367,56.10547 0,0 13.844937,34.86716 7.457584,43.9514 0,0 33.214233,-33.782 30.943173,-37.47247 0,0 4.68406,52.37629 -6.38735,70.54476 0,0 25.54941,6.81317 81.19035,-30.23347 0,0 -17.60071,30.23347 -25.12359,37.89829 l -3.97435,3.03274 z"
       id="path156" />
    <path
       id="path102"
       style="display:inline;fill:#ffeecb;fill-opacity:1;stroke:#ffeecb;stroke-opacity:1"
       d="m 275.33398,10.582031 c -66.2049,-1.3067877 -105.91406,43.214844 -105.91406,43.214844 0,0 25.4945,-39.143707 35.53125,-42.355469 0,0 -110.932079,23.855559 -153.726561,156.156254 0,0 9.266981,33.4611 8.794922,40.76562 0,0 -15.827091,22.5683 -16.785156,46.31836 0,0 7.256466,-11.26698 28.328125,-26.14453 0,0 -9.937583,34.02461 -0.101562,56.10547 0,0 13.846337,34.86693 7.458984,43.95117 0,0 29.749278,-30.26013 31.011718,-36.63086 0.5424,6.79944 3.78649,52.89325 -6.45703,69.70313 0,0 25.55047,6.81421 81.19141,-30.23243 0,0 -16.69901,29.82365 -24.22189,37.48847 l -3.73243,3.24805 51.24399,-0.1394 c 0,0 12.90411,-5.25426 15.17517,-9.37055 0,0 -0.28298,3.92171 4.11719,6.8125 0,0 5.82031,-0.99357 18.8789,-20.01368 0,0 -0.85322,15.30669 -3.83398,19.30469 l -2.66529,3.14781 36.08238,-0.0716 c 0,0 9.11809,-8.04019 13.11025,-10.59765 0.9315,1.07683 0.0444,10.6191 0.0444,10.6191 l 39.68347,0.0637 c 2.40366,-0.80605 3.52989,-3.97379 3.52989,-3.97379 12.32188,-24.49875 9.85353,-26.83536 9.77344,-26.90234 0,0 -25.48869,17.26539 -38.13672,26.49805 60.71395,-100.70284 39.14063,-181.36524 39.14063,-181.36524 0,0 -7.41289,13.36401 -28.7793,36.4375 5.97442,-10.72733 -6.14844,-93.74805 -6.14844,-93.74805 0,0 -7.22678,-33.979412 24.08789,-74.800778 -40.34775,6.694885 -57.41015,32.044922 -57.41015,32.044922 0,0 24.69014,-41.953527 75.27539,-55.603515 C 322.41369,16.545903 297.40229,11.017627 275.33398,10.582031 Z" />
    <path
       style="display:inline;fill:#ffefcb;fill-opacity:1;stroke:#ffefcb;stroke-opacity:1"
       d="m 0.47945541,240.42352 0.0272813,-66.69104 c 0,0 11.34984129,-44.30095 41.48738729,-80.632545 0,0 -6.162905,25.935995 12.405094,85.152855 0,0 3.412497,10.03675 5.59754,30.28994 -17.076475,27.72773 -17.278008,46.42602 -17.278008,46.42602 -4.75,6.6875 -3.529887,9.14073 -3.529887,9.14073 C 27.84482,252.40831 19.925747,211.36207 19.925747,211.36207 16.099005,223.07406 5.7693622,245.89878 5.7693622,245.89878 c 0,0 -4.95225308,-4.60503 -5.28990675,-5.47526"
       id="path133" />
    <path
       style="display:inline;fill:none;fill-opacity:0.501961;stroke:#814a3e;stroke-width:1.05426;stroke-opacity:1"
       d="m 0.50673671,173.73248 c 0,0 11.34984129,-44.30095 41.48738729,-80.632545 0,0 -6.162905,25.935995 12.405094,85.152855"
       id="path9" />
    <path
       style="display:inline;fill:none;fill-opacity:0.501961;stroke:#814a3e;stroke-opacity:1"
       d="m 204.95056,11.441902 c 0,0 -110.93072,23.854987 -153.725202,156.155678"
       id="path11" />
    <path
       style="display:inline;fill:none;fill-opacity:0.501961;stroke:#814a3e;stroke-opacity:1"
       d="m 169.23294,53.578262 c 0,0 26.90758,-39.099154 35.53012,-42.35511"
       id="path12" />
    <path
       style="display:inline;fill:none;fill-opacity:0.501961;stroke:#814a3e;stroke-opacity:1"
       d="m 161.39104,62.227887 c 0,0 68.65141,-90.933009 188.49027,-31.716149"
       id="path13" />
    <path
       style="display:inline;fill:none;fill-opacity:0.501961;stroke:#814a3e;stroke-opacity:1"
       d="m 274.60564,86.115366 c 0,0 24.69042,-41.95364 75.27567,-55.603628"
       id="path14" />
    <path
       style="display:inline;fill:none;fill-opacity:0.501961;stroke:#814a3e;stroke-opacity:1"
       d="m 271.39388,89.352269 c 0,0 20.27425,-30.191871 60.62201,-35.282385"
       id="path15" />
    <path
       style="display:inline;fill:none;fill-opacity:0.501961;stroke:#814a3e;stroke-opacity:1"
       d="m 332.01589,54.069884 c -31.31468,40.821366 -23.71322,74.802066 -23.71322,74.802066 0,0 12.56102,85.13852 5.21912,94.74697"
       id="path16" />
    <path
       style="display:inline;fill:none;fill-opacity:0.501961;stroke:#814a3e;stroke-opacity:1"
       d="m 295.08063,268.18212 c 0,0 10.81209,-12.1398 20.36081,-51.63677"
       id="path17" />
    <path
       style="display:inline;fill:none;fill-opacity:0.501961;stroke:#814a3e;stroke-opacity:1"
       d="m 342.85558,186.18182 c 0,0 -6.78417,12.7191 -28.86504,36.40585"
       id="path18" />
    <path
       style="display:inline;fill:none;fill-opacity:0.501961;stroke:#814a3e;stroke-opacity:1"
       d="m 342.20546,340.8059 c 0,0 -25.84348,17.5086 -38.49151,26.74126"
       id="path20" />
    <path
       style="display:inline;fill:none;fill-opacity:0.501961;stroke:#814a3e;stroke-opacity:1"
       d="m 341.85191,341.04897 c 0,0 2.74403,2.01442 -9.77343,26.90204 0,0 -0.71683,3.44509 -3.91051,4.71904"
       id="path21" />
    <path
       style="fill:none;fill-opacity:0.501961;stroke:#d08b76;stroke-opacity:1"
       d="m 118.03225,118.43372 c 0,0 15.05514,-26.495733 43.35879,-56.205833"
       id="path22" />
    <path
       style="fill:none;fill-opacity:0.501961;stroke:#d08b76;stroke-opacity:1"
       d="m 54.399218,178.25279 c 0,0 3.412497,10.03675 5.620583,30.11026"
       id="path23" />
    <path
       style="fill:none;fill-opacity:0.501961;stroke:#d08b76;stroke-opacity:1"
       d="m 99.765355,233.25421 c 15.255865,-61.42495 31.916885,-85.7139 31.916885,-85.7139 -21.67939,12.38017 -50.785987,33.92424 -50.785987,33.92424 -34.927911,36.93526 -37.336732,70.05656 -37.336732,70.05656 0,0 -0.365218,1.35407 -0.440215,5.05248"
       id="path24" />
    <path
       style="display:inline;fill:none;fill-opacity:0.501961;stroke:#814a3e;stroke-opacity:1"
       d="m 300.29974,372.36365 c 0,0 62.28751,-90.47439 42.60003,-186.71216"
       id="path19" />
  </g>
</svg>
